<svg width="300" height="300" xmlns="http://www.w3.org/2000/svg">
 <g>
  <title>Layer 1</title>
  <metadata>null</metadata>
  <g stroke="null">
   <rect stroke="null" x="-242.883" y="-219.96576" fill="#FEFDFE" height="222.77325" width="230.84611"/>
   <metadata stroke="null">null</metadata>
   <path stroke="null" fill-rule="evenodd" fill="rgb(10,9,10)" d="m163.45232,175.43448c0.65022,7.26389 1.94988,14.73794 1.08729,22.02708c-0.18314,1.54679 0.0277,2.89531 -0.37012,4.39606c-0.82181,-0.64084 -1.21502,-1.54679 -1.93757,-2.26115c-1.85677,-1.83194 -4.03519,-3.502 -6.02201,-5.20992c-8.40588,-7.22454 -16.79328,-14.49586 -25.43385,-21.45826c-2.94406,-2.37179 -5.85426,-4.78146 -8.79908,-7.15176c-0.9634,-0.77525 -2.39541,-2.54036 -3.57504,-2.81957c-1.68902,1.94407 -3.88283,3.57997 -5.78654,5.33839c-4.94549,4.56611 -10.01872,9.01935 -14.91728,13.63001c-14.46405,13.61367 -29.14586,27.03725 -43.88308,40.368c-7.46941,6.75597 -14.83263,13.61145 -22.35206,20.32063c-2.53392,2.26115 -5.11093,4.47551 -7.64485,6.73963c-0.88876,0.79382 -1.78213,1.5906 -2.61318,2.44085c-0.17775,0.18193 -0.85028,1.02921 -1.07882,0.67649c0.20853,-3.73665 -0.02232,-7.54384 -0.03078,-11.28941c-0.0177,-7.79632 -0.03694,-15.59338 -0.04078,-23.39045c-0.01231,-23.14391 0.02308,-46.28783 -0.0177,-69.431c-0.0177,-9.90153 -0.02693,-19.80306 -0.02462,-29.70458c0.00077,-2.97031 -0.01231,-5.94062 -0.0177,-8.91167c-0.00231,-1.13614 -0.31241,-2.78095 0.08849,-3.82576c8.44666,-5.40968 16.7602,-11.03173 25.20455,-16.44809c2.69628,-1.73021 5.37333,-3.4864 8.08192,-5.19879c1.48203,-0.93639 3.19414,-1.71313 4.50458,-2.87377c0.63021,-4.61363 0.11081,-9.61712 0.06002,-14.2612c-0.07464,-6.88295 0.17083,-13.76442 0.02462,-20.64068c0.53018,-0.31634 1.68979,-0.16337 2.33385,-0.1604c1.54205,0.00668 3.0841,-0.01262 4.62616,-0.01337c6.39444,-0.00149 12.92969,-0.36238 19.30874,0.05941c0.23008,5.3874 0.2093,10.91515 -0.00846,16.30255c0.43476,0.21683 2.40234,-1.34704 2.88942,-1.63293c3.11104,-1.8312 6.09434,-3.89333 9.15305,-5.8077c8.29353,-5.19062 16.61015,-10.34485 24.85289,-15.60972c2.72475,-1.7406 5.43873,-3.4968 8.16041,-5.24334c1.10729,-0.7099 2.15456,-1.72946 3.40421,-2.17427c1.74827,0.96312 3.34573,2.23442 5.0463,3.28516c6.23823,3.85323 12.33411,7.91959 18.54156,11.81961c13.11898,8.2441 26.38417,16.39834 39.25846,24.99219c5.2579,3.51016 10.67048,6.82354 15.97917,10.26688c1.5005,0.97426 3.03947,1.8906 4.5469,2.85447c0.5194,0.33267 1.35968,0.60297 1.63285,1.15248c-0.65252,1.12203 -1.71134,1.99308 -2.54392,2.99259c-1.87524,2.25149 -3.74278,4.50819 -5.58571,6.78493c-1.89602,2.34209 -3.72893,4.73245 -5.67497,7.03518c-0.57404,0.67872 -1.01726,1.56832 -1.69518,2.14902c-5.59725,-2.98219 -10.76897,-7.08048 -16.1146,-10.48c-13.43678,-8.5441 -26.71659,-17.3028 -40.17492,-25.81274c-4.21217,-2.66363 -8.28814,-5.59978 -12.58727,-8.12306c-3.16259,1.03515 -6.19514,3.8822 -8.98915,5.63765c-7.17624,4.50967 -14.26244,9.1545 -21.29555,13.86986c-14.23012,9.53915 -28.81729,18.56667 -43.01202,28.15483c-5.0386,3.40323 -10.33267,6.46191 -15.30356,9.95648c-0.89953,1.7354 -0.27163,5.01685 -0.27778,6.95647c-0.01847,5.81735 -0.00385,11.6347 0.00231,17.45206c0.01539,13.7362 -0.02232,27.4724 -0.02616,41.2086c-0.00154,7.0879 0.3909,14.30353 -0.03078,21.37584c0.13235,0.22277 0.55095,-0.37426 0.62636,-0.45594c0.6002,-0.64678 1.33198,-1.24159 1.98682,-1.84159c1.75058,-1.60248 3.53195,-3.26808 5.3941,-4.74878c5.89581,-4.68863 11.25452,-10.16737 16.82868,-15.21096c9.27924,-8.39558 18.33611,-17.06146 27.74847,-25.30778c4.62308,-4.05002 9.14535,-8.21811 13.64454,-12.39659c2.35925,-2.1906 4.92779,-4.24606 7.10775,-6.60448c1.01341,-0.10396 2.19073,1.48813 2.92328,2.10224c2.61933,2.19432 5.25406,4.40645 7.93341,6.5332c7.87108,6.24879 15.40128,12.906 23.46243,18.93276c2.70321,2.0213 5.31485,4.17403 8.03652,6.16711c0.98187,0.71956 2.70013,1.56461 3.38497,2.52105z"/>
   <path stroke="null" fill-rule="evenodd" fill="rgb(10,155,87)" d="m20.61475,281.28444c4.52458,-5.05324 10.09182,-9.50054 15.1335,-14.08001c6.50217,-5.90498 12.89276,-11.93619 19.35183,-17.88275c21.60797,-19.89217 43.0428,-39.97592 64.37682,-60.14284c0.9734,0.53837 1.68902,1.38788 2.53777,2.08813c2.34694,1.9359 4.56537,4.02031 6.92846,5.93394c8.62518,6.98617 17.02028,14.34214 25.37383,21.62905c2.87942,2.5114 5.73499,5.05027 8.64519,7.52899c0.61097,0.52055 2.35617,2.54036 3.09334,2.47947c5.53184,-5.02354 10.83515,-10.33742 16.24464,-15.48868c18.10988,-17.2471 36.29209,-34.42961 54.43043,-51.65518c7.08928,-6.73221 14.22089,-13.41986 21.35326,-20.11048c1.98989,-1.8661 4.00595,-3.70695 5.9843,-5.58418c1.41816,-1.34629 2.76477,-2.81882 4.50535,-3.78937c0.28163,1.35223 0.08387,2.88046 0.08926,4.25794c0.00923,2.47724 0.02308,4.95522 0.03001,7.43246c0.02539,8.16984 0.0277,16.33893 0.06079,24.50877c0.06771,16.46294 0.1262,32.91178 0.14697,49.37323c0.01,7.45177 0.42091,15.17309 -0.71639,22.56322c-1.75828,11.42604 -7.19624,22.85951 -16.53705,30.34914c-7.96727,6.38914 -17.6351,9.91118 -27.88236,10.94559c-5.32793,0.53837 -10.76512,0.21832 -16.11306,0.21312c-8.33585,-0.00743 -16.67248,-0.00743 -25.00833,-0.00891c-35.78115,-0.00891 -71.56229,-0.00074 -107.34344,0.01559c-12.4403,0.00594 -24.88059,0.01782 -37.32089,-0.02896c-5.80347,-0.02153 -11.767,0.35124 -17.55123,-0.06089c0.06233,-0.16188 0.12466,-0.32451 0.18699,-0.48639z"/>
   <path stroke="null" fill-rule="evenodd" fill="rgb(10,10,10)" d="m114.02817,92.49971c1.63054,-0.46337 3.66507,-0.28738 5.35409,-0.29183c3.30495,-0.00891 6.61605,0.02079 9.91792,0.09579c0.54864,1.1755 0.1916,3.14407 0.2193,4.44507c0.07464,3.52947 0.27548,7.0931 0.11004,10.6196c-0.83797,0.46782 -3.30802,0.03416 -4.30913,0.03119c-3.63506,-0.01114 -7.59253,-0.43589 -11.19373,0.04084c-0.51479,-1.03738 -0.01308,-3.20645 -0.00616,-4.38789c0.02155,-3.51462 0.08772,-7.04186 -0.09234,-10.55277z"/>
   <path stroke="null" fill-rule="evenodd" fill="rgb(11,11,11)" d="m114.1359,115.38743c0.06848,-0.44852 0.05386,-0.1797 -0.0377,-0.80644c1.02419,-0.41807 2.42619,-0.22055 3.52964,-0.22277c2.56624,-0.00446 5.13248,-0.0104 7.69872,0.00371c1.26965,0.00668 3.02024,-0.30668 4.21525,0.08837c-0.28086,3.4619 -0.02078,7.04335 -0.01616,10.51861c0.00231,1.36114 0.24239,2.97402 -0.06079,4.30398c-5.00013,-0.19158 -10.11568,-0.24654 -15.11657,-0.08614c-0.54634,-1.0203 -0.12312,-3.05645 -0.1262,-4.22378c-0.00923,-3.18417 -0.1739,-6.39582 -0.08618,-9.57554z"/>
   <path stroke="null" fill-rule="evenodd" fill="rgb(10,10,10)" d="m137.11201,92.21827c5.04707,0.10693 10.28958,-0.46188 15.30894,0.0646c-0.06541,5.02725 0.04001,10.07009 -0.01539,15.10031c-1.07805,0.32154 -2.8471,-0.01262 -4.00287,-0.01411c-3.64429,-0.00668 -7.56944,-0.39505 -11.18449,0.05792c-0.54095,-0.6906 -0.05771,-3.08986 -0.05617,-4.00175c0.00769,-3.68096 -0.38167,-7.55053 -0.05002,-11.20698z"/>
   <path stroke="null" fill-rule="evenodd" fill="rgb(10,10,10)" d="m137.15664,114.39535c3.71047,-0.34233 7.52943,-0.12698 11.25375,-0.10396c1.01957,0.00594 3.11488,-0.39431 3.95055,0.10173c0.04463,3.39581 0.03924,6.79904 0.03924,10.19782c0,1.37822 -0.32088,3.26214 -0.00462,4.5817c-1.93757,-0.26213 -4.08982,-0.08614 -6.04971,-0.09059c-3.06025,-0.00668 -6.11665,-0.09951 -9.17767,0.09282c-0.26932,-4.87948 -0.05309,-9.88965 -0.01154,-14.77952z"/>
   <path stroke="null" fill-rule="evenodd" fill="rgb(15,144,85)" d="m163.45232,175.43448c0.29394,-0.91486 1.23195,-1.83342 1.83215,-2.58863c1.56591,-1.96932 3.22954,-3.86883 4.82007,-5.81958c5.05168,-6.1931 9.86098,-12.5904 14.74722,-18.90305c14.73183,-19.03375 29.47751,-38.09497 43.89539,-57.34703c4.28373,-5.71933 8.70444,-11.35475 12.86351,-17.15948c1.24965,-1.74431 2.61472,-3.42922 3.88668,-5.1624c0.49324,-0.67203 1.27581,-1.28911 1.65363,-2.01684c-3.68584,-0.85842 -7.24087,-2.73343 -10.72665,-4.16586c-4.76389,-1.95743 -9.61936,-3.77081 -14.22243,-6.06389c1.39585,-1.22228 3.58273,-1.95075 5.27022,-2.76462c3.22338,-1.55421 6.38905,-3.22873 9.56011,-4.87873c11.02598,-5.73938 21.97193,-11.71416 32.76399,-17.85156c4.19063,-2.38367 8.38125,-4.76438 12.58958,-7.1228c1.55129,-0.86882 3.70739,-2.7661 5.49722,-2.91165c-1.39354,18.22953 -1.88832,36.56897 -3.73278,54.7688c-0.44553,4.39754 -0.70485,8.82479 -0.92185,13.23496c-0.05694,1.15471 -0.28394,2.28268 -0.18929,3.43888c0.01847,0.22871 0.19545,0.98763 0.00308,1.16288c-3.43422,-2.58268 -6.49139,-5.70894 -9.77864,-8.46835c-3.43499,-2.88343 -7.16392,-5.67255 -10.33036,-8.82702c-6.83074,9.67876 -14.1601,19.07904 -21.36635,28.50309c-14.49329,18.95355 -28.8019,38.03036 -43.38214,56.92154c-7.44248,9.64311 -15.18121,19.06048 -22.86915,28.51572c-2.00682,2.46759 -4.10367,4.86537 -6.08741,7.35003c-1.29966,1.62773 -2.64473,3.75967 -4.24218,5.10151c-0.43399,0.11436 -0.56557,-0.23762 -0.81643,-0.52277c0.39782,-1.50075 0.18699,-2.84927 0.37012,-4.39606c0.86259,-7.28914 -0.43707,-14.76318 -1.08729,-22.02708z"/>
  </g>
 </g>

</svg>